<?xml version="1.0" encoding="UTF-8"?>
<svg version="1.1" xmlns="http://www.w3.org/2000/svg" width="1024" height="1024">
<path d="M0 0 C0.79757217 -0.00511093 1.59514435 -0.01022186 2.41688538 -0.01548767 C5.04053353 -0.02933145 7.66391742 -0.02843073 10.28759766 -0.02612305 C12.12073869 -0.03001307 13.95387884 -0.03434837 15.78701782 -0.03910828 C19.62513147 -0.04655945 23.46315312 -0.04628738 27.30126953 -0.04101562 C32.20596441 -0.03522496 37.11028116 -0.05214762 42.01491356 -0.0753603 C45.80002015 -0.09013352 49.58503646 -0.09096442 53.37016678 -0.08785057 C55.17776869 -0.08836206 56.98537588 -0.09356728 58.79294968 -0.10366249 C61.3270559 -0.11607832 63.86043557 -0.10920462 66.39453125 -0.09765625 C67.13245407 -0.10529999 67.87037689 -0.11294373 68.63066101 -0.12081909 C75.08020146 -0.05625648 80.45354153 1.42889927 85.63916016 5.4621582 C91.91582169 13.5321516 92.51250421 24.70803803 94.20166016 34.51416016 C94.56968225 36.63483953 94.94787558 38.75353518 95.32666016 40.87231445 C95.54322266 42.12536377 95.75978516 43.37841309 95.98291016 44.66943359 C97.07394325 49.33126394 98.16335584 53.6312393 101.66455078 57.09057617 C104.20013843 58.47919407 106.65708174 59.36515091 109.42041016 60.2199707 C110.52376709 60.57019287 111.62712402 60.92041504 112.76391602 61.28125 C113.93962158 61.65032471 115.11532715 62.01939941 116.32666016 62.3996582 C129.51375195 66.66335255 142.19242451 71.66175761 154.43994141 78.1730957 C161.23886465 82.01862169 161.23886465 82.01862169 168.80322266 82.90356445 C173.69232583 81.38397833 177.70914127 78.22310629 181.82666016 75.2746582 C183.21528431 74.29840312 184.6046556 73.3232102 185.99462891 72.34887695 C193.85667815 66.83475995 193.85667815 66.83475995 201.63525391 61.2043457 C206.45394828 57.74691161 209.80660051 56.0835452 215.82666016 56.2746582 C222.244635 58.45893047 226.7118371 62.59667713 231.32666016 67.3996582 C231.95830078 68.03258789 232.58994141 68.66551758 233.24072266 69.31762695 C237.82666016 73.9929009 237.82666016 73.9929009 237.82666016 76.2746582 C238.39085663 76.5145195 238.9550531 76.7543808 239.53634644 77.00151062 C242.31253509 78.54474806 244.21811516 80.40439709 246.47167969 82.64501953 C247.38587677 83.5496846 248.30007385 84.45434967 249.24197388 85.38642883 C250.23146983 86.37618621 251.22062796 87.36628142 252.20947266 88.35668945 C253.23007653 89.37340437 254.25090307 90.38989583 255.27194214 91.40617371 C257.40867533 93.5354534 259.54150219 95.66855665 261.671875 97.80419922 C264.39825431 100.53637371 267.13583013 103.25701244 269.87668037 105.97465992 C271.98718737 108.07041426 274.09070448 110.17307705 276.19228745 112.27777672 C277.19863213 113.28360902 278.20733401 114.2870888 279.21844864 115.28812599 C280.63295165 116.69025262 282.03692403 118.10297857 283.44042969 119.51611328 C284.2411087 120.31616287 285.04178772 121.11621246 285.86672974 121.94050598 C288.77285834 125.40151994 290.24894472 128.79919682 289.95166016 133.3371582 C288.994073 140.00724805 284.72181179 144.98469514 280.82666016 150.2746582 C273.86035261 159.83495325 273.86035261 159.83495325 267.26416016 169.6496582 C266.80912109 170.35864258 266.35408203 171.06762695 265.88525391 171.7980957 C263.79141657 176.69659339 263.01992937 180.09233596 264.87573242 185.11254883 C266.45492192 188.41050462 268.14548391 191.62319147 269.88916016 194.8371582 C271.10672622 197.17621359 272.32030856 199.5173472 273.52978516 201.8605957 C274.10921875 202.97660156 274.68865234 204.09260742 275.28564453 205.24243164 C279.20380755 212.95212504 282.0718241 220.99922885 284.81494141 229.18481445 C285.34510864 230.75259644 285.34510864 230.75259644 285.88598633 232.35205078 C286.58372288 234.42927563 287.26803022 236.51107138 287.93725586 238.59765625 C288.41231567 240.02331909 288.41231567 240.02331909 288.89697266 241.4777832 C289.17299316 242.33017578 289.44901367 243.18256836 289.73339844 244.06079102 C291.04437113 246.71552536 292.30403729 247.75850829 294.82666016 249.2746582 C297.48935734 250.03667056 300.0584306 250.66496826 302.76416016 251.2121582 C303.5432373 251.37981689 304.32231445 251.54747559 305.125 251.72021484 C309.53585279 252.65406759 313.95699665 253.48279242 318.40087891 254.2434082 C319.32586182 254.40591064 320.25084473 254.56841309 321.20385742 254.73583984 C322.98939687 255.0453545 324.77765761 255.33969116 326.56860352 255.61621094 C333.83415715 256.87472751 339.38713034 259.45981611 344.26416016 265.0871582 C349.02984706 274.72823062 346.98895433 290.49123845 346.99462891 300.95825195 C346.99785668 302.39356008 347.00122177 303.82886791 347.00471497 305.26417542 C347.01062971 308.23797367 347.01256238 311.21174317 347.01196289 314.18554688 C347.01186052 317.97326604 347.02562404 321.76080093 347.0427351 325.54847622 C347.05389917 328.49891494 347.05588092 331.44930925 347.05535316 334.39976692 C347.05652234 335.79625152 347.06088336 337.19273768 347.06868553 338.58920097 C347.17176029 358.90062292 347.17176029 358.90062292 340.82666016 366.2746582 C335.10456922 370.15993527 329.55959177 371.50874952 322.82666016 372.8371582 C321.81369873 373.04767822 320.8007373 373.25819824 319.75708008 373.47509766 C315.22027694 374.41271564 310.67550461 375.3075521 306.12744141 376.1887207 C305.44359375 376.32205811 304.75974609 376.45539551 304.05517578 376.59277344 C302.26849157 376.93722466 300.47929378 377.26856615 298.68994141 377.59887695 C293.9946709 378.67562115 293.9946709 378.67562115 290.70166016 381.9465332 C288.78733049 386.49306616 287.30394043 391.01070382 286.01416016 395.7746582 C281.56249583 411.73924752 274.04689402 425.90893944 265.93066406 440.29785156 C263.82325654 444.07133204 262.92086571 446.97213458 263.82666016 451.2746582 C265.76550445 455.19882594 268.29994494 458.71296349 270.82666016 462.2746582 C271.80210002 463.66515734 272.77734846 465.05579077 273.75244141 466.4465332 C275.8295825 469.39982056 277.91523885 472.34687256 280.00634766 475.2902832 C290.71701004 490.38870206 290.71701004 490.38870206 289.82666016 498.2746582 C285.55540937 507.30186384 277.26746193 514.2511659 270.29150391 521.1730957 C268.96633111 522.49774896 267.64167856 523.82292283 266.31752014 525.14859009 C263.5543462 527.91167477 260.78612005 530.66955997 258.01391602 533.42358398 C254.46578818 536.94894843 250.92892428 540.48536353 247.39552975 544.0254879 C244.66698212 546.75737913 241.93346697 549.48425441 239.19833565 552.20955276 C237.892099 553.51194976 236.58719663 554.81568643 235.28367424 556.12080002 C233.46296105 557.94188493 231.63587345 559.75632336 229.80688477 561.5690918 C229.2732431 562.10521088 228.73960144 562.64132996 228.18978882 563.19369507 C223.10068209 568.21112854 219.06737953 570.90013824 211.82666016 571.2746582 C205.26193249 570.06557981 200.98449519 566.80136437 195.76416016 562.7746582 C194.08088369 561.5099129 192.39728726 560.24559333 190.71337891 558.98168945 C188.3727198 557.2082691 186.034021 555.43230567 183.69628906 553.6550293 C181.83189591 552.24509638 179.95592756 550.85216581 178.07666016 549.4621582 C177.02994141 548.67196289 175.98322266 547.88176758 174.90478516 547.06762695 C171.30391744 544.97016721 168.99581878 544.30665832 164.82666016 544.2746582 C162.18220196 545.27955232 160.01113469 546.2804605 157.57666016 547.6496582 C156.16357937 548.39631078 154.7494721 549.14102314 153.33447266 549.8840332 C152.59874023 550.27655273 151.86300781 550.66907227 151.10498047 551.07348633 C139.0753531 557.4157245 126.92133493 562.59535371 113.93505859 566.61743164 C111.63584169 567.33413983 109.34279043 568.06673636 107.05322266 568.8137207 C106.3398877 569.04526855 105.62655273 569.27681641 104.89160156 569.51538086 C104.2101709 569.76594238 103.52874023 570.01650391 102.82666016 570.2746582 C101.74747314 570.64457886 101.74747314 570.64457886 100.64648438 571.02197266 C98.59377231 572.17077091 98.59377231 572.17077091 97.97705078 574.71044922 C97.81398438 575.72292725 97.65091797 576.73540527 97.48291016 577.77856445 C97.29075928 578.90431885 97.0986084 580.03007324 96.90063477 581.18994141 C96.71122314 582.39352295 96.52181152 583.59710449 96.32666016 584.8371582 C95.90364778 587.30117682 95.47786601 589.7647216 95.04931641 592.2277832 C94.84322754 593.43241211 94.63713867 594.63704102 94.42480469 595.87817383 C93.64471745 600.30779573 92.76094671 604.70159881 91.76416016 609.0871582 C91.48443359 610.35172852 91.20470703 611.61629883 90.91650391 612.91918945 C89.04890274 618.66925898 85.97276872 623.0726351 80.82666016 626.2746582 C72.09696828 628.94529595 63.20177633 628.56537922 54.16650391 628.5402832 C52.44975225 628.54163279 50.73300097 628.54357576 49.01625061 628.54608154 C45.43145075 628.54901821 41.84675105 628.54478177 38.26196289 628.53540039 C33.683632 628.52399809 29.10553544 628.53057952 24.5272131 628.54254532 C20.9866003 628.54979604 17.44604244 628.54746142 13.90542793 628.54228973 C12.21785008 628.54096256 10.53026712 628.54256801 8.84269524 628.54724884 C6.47906275 628.55236815 4.11580228 628.54452913 1.75219727 628.53344727 C1.06574127 628.53749573 0.37928528 628.54154419 -0.32797241 628.54571533 C-6.4006614 628.49337222 -12.55089166 627.826345 -17.48583984 624.0246582 C-23.26516237 618.11093283 -24.20990585 611.18967384 -25.67333984 603.3371582 C-25.89054688 602.22501953 -26.10775391 601.11288086 -26.33154297 599.96704102 C-27.27055826 595.14442665 -28.17861805 590.32036093 -28.98583984 585.47387695 C-29.10507812 584.79252686 -29.22431641 584.11117676 -29.34716797 583.40917969 C-29.64923131 581.66394993 -29.92793463 579.91472056 -30.20458984 578.1652832 C-31.45890601 574.42256561 -33.20335103 572.85753527 -36.17333984 570.2746582 C-39.16832569 568.86960426 -39.16832569 568.86960426 -42.48583984 567.95043945 C-43.7167334 567.56654053 -44.94762695 567.1826416 -46.21582031 566.78710938 C-46.86210388 566.59168549 -47.50838745 566.3962616 -48.17425537 566.19491577 C-58.42742996 563.07776663 -68.38808835 559.64578197 -78.04833984 554.9621582 C-78.86560547 554.56617432 -79.68287109 554.17019043 -80.52490234 553.76220703 C-84.99714113 551.52749459 -89.22881092 549.06345969 -93.39624023 546.30126953 C-96.34931212 544.59531167 -98.79496652 544.2746582 -102.17333984 544.2746582 C-108.41006668 546.42605712 -113.20135848 549.99675861 -118.42333984 553.9621582 C-119.68186768 554.89946777 -119.68186768 554.89946777 -120.96582031 555.85571289 C-124.51866522 558.50336127 -128.05384371 561.16931629 -131.54052734 563.90356445 C-136.65785527 567.83941298 -141.46735948 571.39027855 -148.17333984 571.2746582 C-153.78154571 570.17488389 -156.8319555 568.27596329 -160.92333984 564.3371582 C-161.42704102 563.85641846 -161.93074219 563.37567871 -162.44970703 562.88037109 C-164.03668156 561.35741937 -165.6050769 559.81684781 -167.17333984 558.2746582 C-168.24583857 557.24037048 -169.31875101 556.20651157 -170.39208984 555.1730957 C-175.93436316 549.77367352 -175.93436316 549.77367352 -178.17333984 547.2746582 C-178.17333984 546.6146582 -178.17333984 545.9546582 -178.17333984 545.2746582 C-178.75083984 545.0477832 -179.32833984 544.8209082 -179.92333984 544.5871582 C-182.74247665 542.94266173 -184.18588853 540.83911151 -186.17333984 538.2746582 C-187.16333984 537.6146582 -188.15333984 536.9546582 -189.17333984 536.2746582 C-189.17333984 535.6146582 -189.17333984 534.9546582 -189.17333984 534.2746582 C-190.16333984 533.9446582 -191.15333984 533.6146582 -192.17333984 533.2746582 C-192.17333984 532.6146582 -192.17333984 531.9546582 -192.17333984 531.2746582 C-192.83333984 531.2746582 -193.49333984 531.2746582 -194.17333984 531.2746582 C-194.17333984 530.6146582 -194.17333984 529.9546582 -194.17333984 529.2746582 C-195.16333984 528.9446582 -196.15333984 528.6146582 -197.17333984 528.2746582 C-197.17333984 527.6146582 -197.17333984 526.9546582 -197.17333984 526.2746582 C-198.16333984 525.9446582 -199.15333984 525.6146582 -200.17333984 525.2746582 C-201.57568359 523.84887695 -201.57568359 523.84887695 -203.11083984 521.9621582 C-206.82120696 517.56056638 -210.84833624 513.55911374 -214.99731445 509.57617188 C-219.48257016 505.19429327 -222.58747538 501.57143946 -222.79833984 495.1496582 C-222.54620165 488.11780415 -219.25630241 483.74299502 -215.17333984 478.2746582 C-213.53597051 476.02883886 -211.90493118 473.77853801 -210.27563477 471.52685547 C-209.15242508 469.98103318 -208.0214642 468.44080325 -206.8815918 466.90722656 C-204.18936895 463.25155663 -201.61682783 459.54859392 -199.27490234 455.6574707 C-198.86836426 454.98345215 -198.46182617 454.30943359 -198.04296875 453.61499023 C-196.42964458 449.27323686 -196.66662153 445.56405557 -198.34741211 441.28710938 C-198.88938232 440.30718018 -199.43135254 439.32725098 -199.98974609 438.31762695 C-200.58601807 437.21394775 -201.18229004 436.11026855 -201.79663086 434.97314453 C-202.11366974 434.3999649 -202.43070862 433.82678528 -202.75735474 433.23623657 C-204.41263795 430.23506454 -206.01340587 427.20535974 -207.61083984 424.1730957 C-207.92585953 423.5757814 -208.24087921 422.9784671 -208.56544495 422.36305237 C-213.17815156 413.53460223 -216.69425024 404.33913839 -219.52099609 394.7980957 C-219.73812256 394.06937256 -219.95524902 393.34064941 -220.17895508 392.58984375 C-220.75530999 390.60997263 -221.29775838 388.62031765 -221.83740234 386.63012695 C-223.41027869 382.67953987 -224.89552158 380.97750726 -228.17333984 378.2746582 C-230.944648 377.43074923 -233.35585928 376.86335751 -236.18505859 376.4309082 C-237.33745781 376.22624939 -237.33745781 376.22624939 -238.51313782 376.01745605 C-240.95955071 375.58430734 -243.40917788 375.17695002 -245.86083984 374.7746582 C-271.52926458 370.51660826 -271.52926458 370.51660826 -277.23583984 362.6496582 C-281.92206577 353.3979459 -280.33623869 341.36890431 -280.34130859 331.23950195 C-280.34453092 329.70976227 -280.34789568 328.18002289 -280.35139465 326.65028381 C-280.35734275 323.46248663 -280.35923885 320.27471639 -280.35864258 317.08691406 C-280.35854077 313.0267503 -280.37223213 308.96676063 -280.38941479 304.90663815 C-280.40059235 301.75369998 -280.40256009 298.60080331 -280.40203285 295.44784737 C-280.40320279 293.9517106 -280.40756829 292.4555724 -280.41536522 290.95945549 C-280.52163051 268.48082598 -280.52163051 268.48082598 -274.17333984 261.2746582 C-268.96415444 257.82146577 -264.48068667 256.42576669 -258.35302734 255.45825195 C-257.12049728 255.2443557 -257.12049728 255.2443557 -255.86306763 255.02613831 C-253.26014561 254.57536079 -250.65478488 254.14205991 -248.04833984 253.7121582 C-245.43500204 253.27756606 -242.82267549 252.8388845 -240.21218872 252.38746643 C-238.59449403 252.10796044 -236.9751045 251.83803962 -235.35397339 251.57920837 C-231.076345 250.842857 -227.64490676 250.05603349 -224.17333984 247.2746582 C-222.84161409 245.15832771 -222.84161409 245.15832771 -222.06005859 242.7043457 C-221.73827637 241.81457031 -221.41649414 240.92479492 -221.08496094 240.00805664 C-220.78412598 239.10603516 -220.48329102 238.20401367 -220.17333984 237.2746582 C-219.90215332 236.46287109 -219.6309668 235.65108398 -219.3515625 234.81469727 C-218.5483417 232.34748323 -217.76732116 229.87383424 -216.98583984 227.3996582 C-214.21684548 218.81802562 -210.85172178 210.65462779 -207.01831055 202.49584961 C-206.46276489 201.31321533 -206.46276489 201.31321533 -205.89599609 200.10668945 C-205.56349854 199.41293213 -205.23100098 198.7191748 -204.88842773 198.00439453 C-204.04599038 196.27856422 -204.04599038 196.27856422 -204.17333984 194.2746582 C-203.72345703 193.82735352 -203.27357422 193.38004883 -202.81005859 192.91918945 C-199.24752754 189.33965348 -197.58223395 184.19646049 -196.54833984 179.3371582 C-198.45541763 169.99247706 -206.57660997 161.30514446 -212.05029297 153.68676758 C-223.77556299 137.18406005 -223.77556299 137.18406005 -222.17333984 127.2746582 C-220.92333984 124.4621582 -220.92333984 124.4621582 -219.17333984 122.2746582 C-218.61646484 121.4909082 -218.05958984 120.7071582 -217.48583984 119.8996582 C-215.6226271 117.78465996 -213.87152901 116.11668734 -211.734375 114.31445312 C-206.73290075 109.97282017 -202.08966966 105.28906692 -197.43629074 100.58220863 C-195.84900394 98.97727387 -194.2579793 97.37612867 -192.66592407 95.77592468 C-188.14579991 91.23156147 -183.63151779 86.68142709 -179.12158203 82.12695312 C-176.34801811 79.32651969 -173.56952972 76.5310497 -170.78801346 73.73851585 C-169.73600875 72.68033605 -168.68590077 71.62026685 -167.63779831 70.55822182 C-166.17166292 69.0727367 -164.69934536 67.5936389 -163.22558594 66.11572266 C-162.39255951 65.2752388 -161.55953308 64.43475494 -160.70126343 63.56880188 C-155.85570454 59.17135555 -151.83945582 56.38959124 -145.17333984 56.2746582 C-138.41033971 58.27610162 -133.58737382 61.6139075 -128.04833984 65.8996582 C-126.37597716 67.15768503 -124.70148055 68.41287993 -123.02490234 69.6652832 C-121.79562012 70.58470703 -121.79562012 70.58470703 -120.54150391 71.52270508 C-117.22038533 73.97964806 -113.85979405 76.35710526 -110.42333984 78.6496582 C-108.85326172 79.71313477 -108.85326172 79.71313477 -107.25146484 80.7980957 C-103.42818303 82.63210652 -101.38370252 82.84819229 -97.17333984 82.2746582 C-93.89863744 81.03756505 -90.83900684 79.45053433 -87.73583984 77.8371582 C-72.40008691 70.1993572 -56.31116769 64.4418431 -40.00146484 59.24731445 C-39.06818359 58.92633789 -38.13490234 58.60536133 -37.17333984 58.2746582 C-36.44630859 58.02586914 -35.71927734 57.77708008 -34.97021484 57.52075195 C-31.27819729 54.96041804 -30.11022348 50.52968855 -29.23779297 46.29223633 C-28.96793117 44.79835553 -28.70728513 43.3027884 -28.45458984 41.8059082 C-28.31057739 41.00737427 -28.16656494 40.20884033 -28.01818848 39.3861084 C-27.5611099 36.85043124 -27.11576442 34.31293049 -26.67333984 31.7746582 C-26.09017195 28.42891527 -25.49485359 25.08566995 -24.89208984 21.7434082 C-24.76386841 20.98386841 -24.63564697 20.22432861 -24.50354004 19.44177246 C-23.12357575 11.8026692 -20.68532311 6.87135228 -14.17333984 2.2746582 C-9.43524278 0.29463781 -5.06795342 -0.01692172 0 0 Z M-68.17333984 129.2746582 C-69.33865234 129.88825195 -70.50396484 130.5018457 -71.70458984 131.1340332 C-86.05686075 138.95666734 -98.33642271 149.09441215 -110.17333984 160.2746582 C-111.94068088 161.84110724 -113.7113514 163.40381046 -115.48583984 164.9621582 C-150.08482774 196.15075302 -172.24837905 246.26849515 -175.17333984 292.2746582 C-175.23876902 295.24996389 -175.25187443 298.19929551 -175.14599609 301.1730957 C-175.17333984 303.2746582 -175.17333984 303.2746582 -176.17333984 306.2746582 C-179.1369892 355.07148947 -162.73587722 405.43593564 -132.52539062 443.56420898 C-131.3372115 445.06734783 -130.17318337 446.58951128 -129.01318359 448.11450195 C-119.08662831 460.8334986 -107.08809708 472.61181826 -94.17333984 482.2746582 C-93.12275391 483.0687207 -92.07216797 483.8627832 -90.98974609 484.6809082 C-63.38762587 505.16400145 -28.25727179 521.8579696 6.56103516 523.1340332 C8.82666016 523.2746582 8.82666016 523.2746582 10.82666016 524.2746582 C63.04304905 530.01350149 118.3030339 515.7764926 160.04492188 483.56274414 C164.10203861 480.27048579 167.96665891 476.7937626 171.82666016 473.2746582 C172.94894297 472.36634272 174.07388912 471.46130667 175.20166016 470.55981445 C176.06791016 469.80571289 176.93416016 469.05161133 177.82666016 468.2746582 C177.82666016 467.6146582 177.82666016 466.9546582 177.82666016 466.2746582 C178.40416016 466.0271582 178.98166016 465.7796582 179.57666016 465.5246582 C182.15605995 464.09165832 183.88787608 462.49041144 185.82666016 460.2746582 C185.82666016 459.6146582 185.82666016 458.9546582 185.82666016 458.2746582 C186.40416016 458.03875977 186.98166016 457.80286133 187.57666016 457.55981445 C212.21388791 443.48750902 228.59857886 397.35107338 235.58447266 372.07543945 C237.66054109 364.20141413 239.43368268 356.29820848 240.82666016 348.2746582 C241.00455078 347.26145508 241.00455078 347.26145508 241.18603516 346.2277832 C245.03351902 322.95966649 244.11708254 297.36341829 239.82666016 274.2746582 C239.61783203 273.14882324 239.61783203 273.14882324 239.40478516 272.00024414 C238.43777861 267.0241896 237.21783882 262.14814458 235.82666016 257.2746582 C235.60558594 256.49509766 235.38451172 255.71553711 235.15673828 254.91235352 C226.40659086 224.87966596 211.01623272 197.29719274 189.73681641 174.39575195 C187.82666016 172.2746582 187.82666016 172.2746582 186.19775391 169.99731445 C185.74529297 169.42883789 185.29283203 168.86036133 184.82666016 168.2746582 C184.16666016 168.2746582 183.50666016 168.2746582 182.82666016 168.2746582 C182.60880859 167.72551758 182.39095703 167.17637695 182.16650391 166.6105957 C180.38775678 163.5094564 178.00159299 161.28803201 175.38916016 158.8996582 C174.82712891 158.38435547 174.26509766 157.86905273 173.68603516 157.33813477 C165.88876965 150.35482363 157.40746315 144.25071249 148.82666016 138.2746582 C147.96137695 137.67161865 147.96137695 137.67161865 147.07861328 137.05639648 C84.828511 94.49004345 -2.88238833 93.80883897 -68.17333984 129.2746582 Z " fill="#FE7513" transform="translate(478.17333984375,197.725341796875)"/>
<path d="M0 0 C2.67064372 1.04061181 4.94788205 2.07104096 7.4296875 3.4375 C8.11320282 3.79658447 8.79671814 4.15566895 9.50094604 4.52563477 C10.94486626 5.28617838 12.38506989 6.05381588 13.82165527 6.828125 C15.95586638 7.97625762 18.10063583 9.10116233 20.25097656 10.21875 C23.83060242 12.08150008 27.39957594 13.96350382 30.96435547 15.85449219 C33.12957329 17.00242462 35.29711015 18.14588932 37.46484375 19.2890625 C41.65541941 21.50367628 45.83028852 23.74639941 50 26 C50.68171265 26.36544922 51.36342529 26.73089844 52.0657959 27.10742188 C54.02733457 28.16368026 55.97953082 29.23540206 57.9296875 30.3125 C59.05358887 30.92738281 60.17749023 31.54226563 61.33544922 32.17578125 C64.01159027 34.00793499 65.02299637 34.95527608 66 38 C65.91399348 41.35425415 65.19006251 42.76702014 63.0625 45.375 C59.09272092 49.05115637 54.47579037 51.98427328 50 55 C50.86483775 59.6376534 53.66328384 62.11794062 56.9375 65.3125 C57.526521 65.89209473 58.11554199 66.47168945 58.72241211 67.06884766 C63.46629508 71.65132157 68.38033037 75.53161015 74 79 C74.886875 79.58136719 75.77375 80.16273438 76.6875 80.76171875 C100.65603701 95.77462033 132.25989377 99.21418982 159.625 93.25 C165.71196887 91.81854171 171.64324309 89.94677638 177.45703125 87.63671875 C180.93991622 86.76465999 182.60311613 86.69952845 186 88 C188.43603159 90.74446558 190.19118357 93.8182756 192 97 C192.51626953 97.89251465 193.03253906 98.7850293 193.56445312 99.70458984 C195.16016323 102.51487856 196.71036838 105.34614465 198.25 108.1875 C198.77851562 109.14591797 199.30703125 110.10433594 199.8515625 111.09179688 C204.93917477 120.43415089 204.93917477 120.43415089 206 125 C204.28300269 129.50711795 201.14135867 131.80422632 197 134 C192.79074506 135.71185853 188.50454118 137.14795357 184.1875 138.5625 C182.98295166 138.96017578 181.77840332 139.35785156 180.53735352 139.76757812 C171.41115161 142.70516792 162.5053874 144.84159857 153 146 C151.70449219 146.19142578 151.70449219 146.19142578 150.3828125 146.38671875 C138.02414027 147.98876885 125.30478399 147.17708497 112.9375 146.125 C111.9671582 146.04660889 110.99681641 145.96821777 109.99707031 145.88745117 C109.09956055 145.80342041 108.20205078 145.71938965 107.27734375 145.6328125 C106.47546631 145.55949707 105.67358887 145.48618164 104.84741211 145.41064453 C104.23776611 145.27513184 103.62812012 145.13961914 103 145 C102.67 144.34 102.34 143.68 102 143 C100.12442555 142.76342186 98.24767864 142.53398581 96.3671875 142.34033203 C92.09417604 141.72599849 88.07923781 140.31559032 84 138.9375 C83.08299316 138.62876953 82.16598633 138.32003906 81.22119141 138.00195312 C52.20816103 127.92889544 29.20097175 108.59270793 9 86 C8.34 85.34 7.68 84.68 7 84 C5.60587891 84.52400391 5.60587891 84.52400391 4.18359375 85.05859375 C2.94738281 85.51363281 1.71117187 85.96867188 0.4375 86.4375 C-0.78066406 86.88996094 -1.99882812 87.34242188 -3.25390625 87.80859375 C-6.90568842 88.97000518 -10.17803891 89.73815892 -14 90 C-18.29119897 87.65934602 -18.29119897 87.65934602 -20 85 C-20.48820416 77.20076318 -19.50204715 69.41826537 -18.7578125 61.65625 C-18.62787761 60.27821753 -18.49815128 58.90016537 -18.36862183 57.52209473 C-18.09738299 54.64742698 -17.82297073 51.77308399 -17.54638672 48.89892578 C-17.19447928 45.23837643 -16.85156545 41.57704853 -16.51117134 37.9154129 C-16.24578699 35.07352225 -15.97506664 32.23215818 -15.70284653 29.39091492 C-15.51243842 27.39230574 -15.32685294 25.39323898 -15.14138794 23.39416504 C-13.47937081 6.33285397 -13.47937081 6.33285397 -10.375 1.4375 C-6.99562104 -0.60791358 -3.81547015 -0.46151312 0 0 Z " fill="#FE7512" transform="translate(378,523)"/>
<path d="M0 0 C2.82872471 2.16278304 5.39249677 4.578747 8 7 C8.763125 7.6496875 9.52625 8.299375 10.3125 8.96875 C41.08284449 35.39968694 60.77257037 75.56715836 63.87109375 115.91748047 C65.14648127 136.5217524 62.62611146 156.29208685 56.58544922 176.00683594 C55.61471254 179.31171259 54.81239897 182.653066 54 186 C55.04800781 186.51949219 56.09601563 187.03898438 57.17578125 187.57421875 C58.55505344 188.27792905 59.93393969 188.98239615 61.3125 189.6875 C62.34793945 190.19700195 62.34793945 190.19700195 63.40429688 190.71679688 C66.51237939 192.32339025 68.76782822 193.75025847 71.16796875 196.33203125 C72.17144276 199.54974367 71.68774929 201.38445831 70.15917969 204.36669922 C68.19004182 207.14124268 65.58747802 208.56525172 62.625 210.0625 C61.94727539 210.42408203 61.26955078 210.78566406 60.57128906 211.15820312 C58.06402506 212.47394959 55.53612912 213.74075676 53 215 C51.92137695 215.53608887 50.84275391 216.07217773 49.73144531 216.62451172 C37.45345432 222.6889102 25.09070045 228.58074592 12.625 234.25 C11.8422168 234.60835937 11.05943359 234.96671875 10.25292969 235.3359375 C-0.74574443 240.26520654 -0.74574443 240.26520654 -6.1875 239.625 C-10.17496157 237.32113331 -11.50788757 234.20279332 -13 230 C-13.93706155 225.46195801 -14.43586574 220.90254619 -14.921875 216.296875 C-15.07196067 214.96929211 -15.2232078 213.64184008 -15.37554932 212.31451416 C-15.69058998 209.54184269 -15.99554015 206.7683196 -16.29248047 203.99365234 C-16.66970699 200.47108047 -17.06596077 196.95099663 -17.46918869 193.43131638 C-17.78192509 190.69153605 -18.08738347 187.95098323 -18.39048004 185.21012115 C-18.60305637 183.29140694 -18.81914421 181.37308278 -19.03533936 179.45477295 C-21.30054292 158.18796473 -21.30054292 158.18796473 -17 152 C-16 151 -16 151 -12.39453125 150.66015625 C-7.49917784 150.7223992 -4.56444487 152.63299213 -0.6875 155.4375 C3.89342132 158.70222512 3.89342132 158.70222512 9 161 C9.69889135 158.00475135 10.35769819 155.00753483 11 152 C11.19078125 151.19949219 11.3815625 150.39898438 11.578125 149.57421875 C17.31930469 121.89353097 11.33161045 90.72152443 -4 67 C-11.07402223 57.14420034 -19.55647675 48.58264244 -29.25 41.3125 C-31 40 -31 40 -32 39 C-32.03486097 30.44163187 -28.51931654 25.27299455 -23.75 18.375 C-23.08097656 17.37726563 -22.41195312 16.37953125 -21.72265625 15.3515625 C-19.83745896 12.55154452 -17.92508224 9.77269504 -16 7 C-15.50040771 6.26950439 -15.00081543 5.53900879 -14.48608398 4.78637695 C-12.66497384 2.1618061 -11.27957485 0.17921465 -8.5625 -1.5625 C-4.94735952 -2.17971911 -3.31652161 -1.62574589 0 0 Z " fill="#FE7512" transform="translate(606,383)"/>
<path d="M0 0 C3.33795056 1.94157458 6.31240038 4.2907263 9.33251953 6.69042969 C11.79344555 8.62313937 14.30895834 10.48033721 16.82055664 12.34643555 C20.22654765 14.88059 23.61340741 17.44000898 27 20 C27.57008789 20.43070801 28.14017578 20.86141602 28.72753906 21.30517578 C35.40769629 26.36450111 41.98091175 31.54805397 48.5 36.8125 C49.50643555 37.62158813 49.50643555 37.62158813 50.53320312 38.44702148 C54.22255291 41.4443855 57.85040133 44.42364274 61 48 C61.26610701 51.59244465 60.97564862 53.79773765 58.66088867 56.65014648 C54.10490777 61.14655477 49.26190079 64.96365532 44.0625 68.6875 C42.37719192 69.91219333 40.69230313 71.13746382 39.0078125 72.36328125 C38.16895508 72.97123535 37.33009766 73.57918945 36.46582031 74.20556641 C32.76640699 76.89771373 29.09774697 79.62992509 25.4375 82.375 C24.78015869 82.86782471 24.12281738 83.36064941 23.44555664 83.8684082 C17.45633818 88.37728273 11.62121417 93.07098252 5.79296875 97.78515625 C-0.99004787 103.10837708 -0.99004787 103.10837708 -5 103 C-8.48634601 101.37844371 -9.84302194 100.23546708 -12 97 C-12.41064453 94.63989258 -12.41064453 94.63989258 -12.6328125 91.89453125 C-12.71660156 90.91162109 -12.80039062 89.92871094 -12.88671875 88.91601562 C-12.96535156 87.89185547 -13.04398438 86.86769531 -13.125 85.8125 C-13.21136719 84.77673828 -13.29773438 83.74097656 -13.38671875 82.67382812 C-13.59885449 80.11641392 -13.80296419 77.55861459 -14 75 C-45.58942867 84.56419383 -70.44570434 102.39292825 -86.5 131.7421875 C-91.78026854 142.5997397 -94.7195893 154.80130215 -97.12890625 166.58203125 C-98.25193373 169.69931381 -99.28093696 171.08409254 -102 173 C-104.62322582 173.19247337 -106.73275691 173.15135785 -109.3125 172.875 C-110.03727539 172.81296387 -110.76205078 172.75092773 -111.50878906 172.68701172 C-113.11614375 172.54775239 -114.72274821 172.39963868 -116.32861328 172.24414062 C-119.23656616 171.97837999 -122.14518644 171.77489608 -125.05859375 171.578125 C-127.1224701 171.42810149 -129.18627338 171.27706923 -131.25 171.125 C-132.23782471 171.05909668 -133.22564941 170.99319336 -134.2434082 170.92529297 C-144.13433264 170.12284264 -144.13433264 170.12284264 -147 167 C-148.40731955 160.29341323 -146.16761328 153.16061799 -144.5 146.6875 C-144.23372803 145.64295654 -143.96745605 144.59841309 -143.69311523 143.5222168 C-132.68079507 101.99678979 -106.14003435 66.82563896 -69.33984375 44.76953125 C-52.41384592 35.04054149 -31.50858818 28.14265333 -12 27 C-12.03480469 25.70964844 -12.06960938 24.41929687 -12.10546875 23.08984375 C-12.13362342 21.37240894 -12.16092177 19.65495993 -12.1875 17.9375 C-12.21263672 17.08994141 -12.23777344 16.24238281 -12.26367188 15.36914062 C-12.32827015 9.7921559 -11.69742038 5.91805702 -9 1 C-5.86452869 -0.56773566 -3.35744492 -0.80894959 0 0 Z " fill="#FE7512" transform="translate(501,330)"/>
<path d="M0 0 C0 0.33 0 0.66 0 1 C-1.41623216 1.05447047 -2.83308191 1.09300508 -4.25 1.125 C-5.03890625 1.14820313 -5.8278125 1.17140625 -6.640625 1.1953125 C-9.20731941 0.9828378 -10.7916067 0.28654105 -13 -1 C-8.15507803 -2.51403812 -4.7408989 -1.36602172 0 0 Z " fill="#F5700D" transform="translate(339,256)"/>
<path d="M0 0 C1.98 0 3.96 0 6 0 C6 0.33 6 0.66 6 1 C4.02 1 2.04 1 0 1 C0 0.67 0 0.34 0 0 Z " fill="#ED7213" transform="translate(498,196)"/>
<path d="M0 0 C4 1 4 1 4 1 Z " fill="#FC7A14" transform="translate(528,720)"/>
<path d="M0 0 C4 1 4 1 4 1 Z " fill="#EE7214" transform="translate(522,196)"/>
<path d="M0 0 C3 1 3 1 3 1 Z " fill="#FA7713" transform="translate(528,616)"/>
<path d="M0 0 C3 1 3 1 3 1 Z " fill="#F87515" transform="translate(236,574)"/>
<path d="M0 0 C3 1 3 1 3 1 Z " fill="#FD7813" transform="translate(474,357)"/>
<path d="" fill="#F97415" transform="translate(0,0)"/>
<path d="" fill="#F77514" transform="translate(0,0)"/>
<path d="M0 0 C2 1 2 1 2 1 Z " fill="#F97513" transform="translate(645,743)"/>
<path d="M0 0 C2 1 2 1 2 1 Z " fill="#FD7916" transform="translate(499,670)"/>
<path d="M0 0 C2 1 2 1 2 1 Z " fill="#FA7716" transform="translate(784,574)"/>
<path d="" fill="#FC7915" transform="translate(0,0)"/>
<path d="" fill="#FB7715" transform="translate(0,0)"/>
<path d="" fill="#FC7715" transform="translate(0,0)"/>
<path d="M0 0 C2 1 2 1 2 1 Z " fill="#FC7A15" transform="translate(441,368)"/>
<path d="M0 0 C2 1 2 1 2 1 Z " fill="#EC7213" transform="translate(508,196)"/>
<path d="M0 0 C2 1 2 1 2 1 Z " fill="#EE7314" transform="translate(492,196)"/>
<path d="M0 0 C2 1 2 1 2 1 Z " fill="#EC7213" transform="translate(484,196)"/>
<path d="M0 0 C2 1 2 1 2 1 Z " fill="#E96F13" transform="translate(476,196)"/>
<path d="" fill="#E86E13" transform="translate(0,0)"/>
<path d="" fill="#E96F14" transform="translate(0,0)"/>
<path d="" fill="#EA7112" transform="translate(0,0)"/>
<path d="" fill="#E66E14" transform="translate(0,0)"/>
<path d="" fill="#E36E16" transform="translate(0,0)"/>
<path d="" fill="#F77514" transform="translate(0,0)"/>
<path d="" fill="#FB7817" transform="translate(0,0)"/>
<path d="" fill="#FB7817" transform="translate(0,0)"/>
<path d="" fill="#F37513" transform="translate(0,0)"/>
<path d="" fill="#FA7914" transform="translate(0,0)"/>
<path d="" fill="#F97914" transform="translate(0,0)"/>
<path d="" fill="#FA7511" transform="translate(0,0)"/>
<path d="" fill="#FC7715" transform="translate(0,0)"/>
<path d="" fill="#FC7913" transform="translate(0,0)"/>
<path d="" fill="#FA7814" transform="translate(0,0)"/>
<path d="" fill="#FE7A15" transform="translate(0,0)"/>
<path d="" fill="#FC7914" transform="translate(0,0)"/>
<path d="" fill="#FD7A16" transform="translate(0,0)"/>
<path d="" fill="#FD7816" transform="translate(0,0)"/>
<path d="" fill="#E66E13" transform="translate(0,0)"/>
<path d="" fill="#FC7A18" transform="translate(0,0)"/>
<path d="" fill="#FE7A15" transform="translate(0,0)"/>
<path d="" fill="#FE7916" transform="translate(0,0)"/>
<path d="" fill="#FC7A15" transform="translate(0,0)"/>
<path d="" fill="#FD7813" transform="translate(0,0)"/>
<path d="" fill="#FD7A16" transform="translate(0,0)"/>
<path d="" fill="#F97514" transform="translate(0,0)"/>
<path d="" fill="#FC7714" transform="translate(0,0)"/>
<path d="" fill="#FE7914" transform="translate(0,0)"/>
<path d="" fill="#FA7514" transform="translate(0,0)"/>
<path d="" fill="#FD7814" transform="translate(0,0)"/>
<path d="" fill="#F97716" transform="translate(0,0)"/>
<path d="" fill="#FF7815" transform="translate(0,0)"/>
<path d="" fill="#FA7715" transform="translate(0,0)"/>
<path d="" fill="#FD7814" transform="translate(0,0)"/>
<path d="" fill="#FB7914" transform="translate(0,0)"/>
<path d="" fill="#FE7914" transform="translate(0,0)"/>
<path d="" fill="#F67617" transform="translate(0,0)"/>
<path d="" fill="#FE7A14" transform="translate(0,0)"/>
<path d="" fill="#FE7815" transform="translate(0,0)"/>
<path d="" fill="#FB7A14" transform="translate(0,0)"/>
<path d="" fill="#F87616" transform="translate(0,0)"/>
<path d="" fill="#F97615" transform="translate(0,0)"/>
<path d="" fill="#FB7715" transform="translate(0,0)"/>
<path d="" fill="#FB7818" transform="translate(0,0)"/>
<path d="" fill="#FF7914" transform="translate(0,0)"/>
<path d="" fill="#FA7717" transform="translate(0,0)"/>
<path d="" fill="#FB7714" transform="translate(0,0)"/>
<path d="" fill="#FE7A14" transform="translate(0,0)"/>
<path d="" fill="#FF7C15" transform="translate(0,0)"/>
<path d="" fill="#FF7D15" transform="translate(0,0)"/>
<path d="" fill="#FE7916" transform="translate(0,0)"/>
<path d="" fill="#F77517" transform="translate(0,0)"/>
<path d="" fill="#FD7A16" transform="translate(0,0)"/>
<path d="" fill="#FA7916" transform="translate(0,0)"/>
<path d="" fill="#ED7313" transform="translate(0,0)"/>
<path d="" fill="#FD7A15" transform="translate(0,0)"/>
<path d="" fill="#FA7714" transform="translate(0,0)"/>
<path d="" fill="#FB7615" transform="translate(0,0)"/>
<path d="" fill="#FA7814" transform="translate(0,0)"/>
<path d="" fill="#FC7A14" transform="translate(0,0)"/>
<path d="" fill="#FD7916" transform="translate(0,0)"/>
<path d="" fill="#FE7A16" transform="translate(0,0)"/>
<path d="" fill="#FD7917" transform="translate(0,0)"/>
<path d="" fill="#FE7A16" transform="translate(0,0)"/>
<path d="" fill="#FD7715" transform="translate(0,0)"/>
<path d="" fill="#FD7715" transform="translate(0,0)"/>
<path d="" fill="#FC7714" transform="translate(0,0)"/>
<path d="" fill="#FD7915" transform="translate(0,0)"/>
<path d="" fill="#FD7715" transform="translate(0,0)"/>
<path d="" fill="#EE7215" transform="translate(0,0)"/>
<path d="" fill="#FD7715" transform="translate(0,0)"/>
<path d="" fill="#F87713" transform="translate(0,0)"/>
<path d="" fill="#F97414" transform="translate(0,0)"/>
<path d="" fill="#FE7914" transform="translate(0,0)"/>
<path d="" fill="#FF7914" transform="translate(0,0)"/>
<path d="" fill="#FD7A13" transform="translate(0,0)"/>
<path d="" fill="#FE7A14" transform="translate(0,0)"/>
<path d="" fill="#FC7816" transform="translate(0,0)"/>
<path d="" fill="#FF7714" transform="translate(0,0)"/>
<path d="" fill="#FD7815" transform="translate(0,0)"/>
<path d="" fill="#FD7815" transform="translate(0,0)"/>
<path d="" fill="#FD7614" transform="translate(0,0)"/>
<path d="" fill="#FB7816" transform="translate(0,0)"/>
<path d="" fill="#EE7216" transform="translate(0,0)"/>
<path d="" fill="#F77616" transform="translate(0,0)"/>
<path d="" fill="#F57715" transform="translate(0,0)"/>
<path d="" fill="#FD7613" transform="translate(0,0)"/>
<path d="" fill="#F57716" transform="translate(0,0)"/>
<path d="" fill="#F67715" transform="translate(0,0)"/>
<path d="" fill="#F77715" transform="translate(0,0)"/>
<path d="" fill="#FB7815" transform="translate(0,0)"/>
<path d="" fill="#FD7917" transform="translate(0,0)"/>
<path d="" fill="#FD7716" transform="translate(0,0)"/>
<path d="" fill="#F87516" transform="translate(0,0)"/>
<path d="" fill="#FA7B13" transform="translate(0,0)"/>
<path d="" fill="#FC7B15" transform="translate(0,0)"/>
<path d="" fill="#F97815" transform="translate(0,0)"/>
<path d="" fill="#FC7714" transform="translate(0,0)"/>
<path d="" fill="#FC7816" transform="translate(0,0)"/>
<path d="" fill="#FD7615" transform="translate(0,0)"/>
<path d="" fill="#FC7615" transform="translate(0,0)"/>
<path d="" fill="#FD7914" transform="translate(0,0)"/>
<path d="" fill="#F87616" transform="translate(0,0)"/>
<path d="" fill="#F87716" transform="translate(0,0)"/>
<path d="" fill="#FD7B16" transform="translate(0,0)"/>
<path d="" fill="#FB7612" transform="translate(0,0)"/>
<path d="" fill="#FE7A14" transform="translate(0,0)"/>
<path d="" fill="#FE7915" transform="translate(0,0)"/>
<path d="" fill="#FA7817" transform="translate(0,0)"/>
<path d="" fill="#FE7B15" transform="translate(0,0)"/>
<path d="" fill="#FE7914" transform="translate(0,0)"/>
<path d="" fill="#FC7914" transform="translate(0,0)"/>
<path d="" fill="#FE7915" transform="translate(0,0)"/>
<path d="" fill="#F97814" transform="translate(0,0)"/>
<path d="" fill="#FA7816" transform="translate(0,0)"/>
<path d="" fill="#FD7416" transform="translate(0,0)"/>
<path d="" fill="#F57414" transform="translate(0,0)"/>
<path d="" fill="#F37416" transform="translate(0,0)"/>
<path d="" fill="#EE7114" transform="translate(0,0)"/>
<path d="" fill="#ED6E14" transform="translate(0,0)"/>
<path d="" fill="#FB7815" transform="translate(0,0)"/>
<path d="" fill="#FF7915" transform="translate(0,0)"/>
<path d="" fill="#FC7813" transform="translate(0,0)"/>
<path d="" fill="#FF7916" transform="translate(0,0)"/>
<path d="" fill="#FF7814" transform="translate(0,0)"/>
<path d="" fill="#FD7814" transform="translate(0,0)"/>
<path d="" fill="#FD7914" transform="translate(0,0)"/>
<path d="" fill="#F87915" transform="translate(0,0)"/>
<path d="" fill="#F97713" transform="translate(0,0)"/>
<path d="" fill="#FA7615" transform="translate(0,0)"/>
<path d="" fill="#FC7816" transform="translate(0,0)"/>
<path d="" fill="#EA6F15" transform="translate(0,0)"/>
<path d="" fill="#F97814" transform="translate(0,0)"/>
<path d="" fill="#F87516" transform="translate(0,0)"/>
<path d="" fill="#EA7014" transform="translate(0,0)"/>
<path d="" fill="#E96F11" transform="translate(0,0)"/>
<path d="" fill="#EC7113" transform="translate(0,0)"/>
<path d="" fill="#EA7112" transform="translate(0,0)"/>
<path d="" fill="#ED7014" transform="translate(0,0)"/>
<path d="" fill="#EC7213" transform="translate(0,0)"/>
<path d="" fill="#EE7113" transform="translate(0,0)"/>
<path d="" fill="#F07214" transform="translate(0,0)"/>
<path d="" fill="#EE7213" transform="translate(0,0)"/>
<path d="" fill="#EE7214" transform="translate(0,0)"/>
<path d="" fill="#EB6F14" transform="translate(0,0)"/>
</svg>
